<?xml version="1.0" standalone="no"?><!DOCTYPE svg PUBLIC "-//W3C//DTD SVG 1.1//EN" "http://www.w3.org/Graphics/SVG/1.1/DTD/svg11.dtd"><svg t="1589633795674" class="icon" viewBox="0 0 1024 1024" version="1.1" xmlns="http://www.w3.org/2000/svg" p-id="3053" width="32" height="32" xmlns:xlink="http://www.w3.org/1999/xlink"><defs><style type="text/css"></style></defs><path d="M782.336 1002.496c-14.848 0-29.184-4.608-42.496-13.312l-214.528-147.968c-8.192-5.632-18.432-5.632-27.136 0l-214.016 147.968c-26.624 18.432-60.416 17.92-86.528-1.024-26.112-18.944-36.864-50.688-27.648-81.408l74.24-250.368c2.56-9.216-0.512-18.944-8.192-25.088L34.304 476.672C8.192 456.704-2.56 423.424 7.68 392.192s37.888-52.224 71.168-52.736L331.776 332.8c10.24 0 19.968-7.168 23.552-17.408l86.016-244.224c10.752-30.208 37.888-49.664 70.144-49.664h0.512c31.744 0 59.392 19.456 70.656 49.664l87.04 245.76c3.072 9.216 11.776 15.36 21.504 15.872l260.608 6.656c31.744 0.512 58.88 20.992 68.608 51.2 10.24 30.72 0 62.976-25.6 82.944l-206.848 158.72c-7.68 5.632-10.752 15.872-8.192 24.576l74.24 250.368c9.216 30.72-1.536 62.464-27.648 81.408-13.312 9.216-28.672 13.824-44.032 13.824z m-269.824-216.576c14.848 0 29.696 4.608 41.984 13.312l214.528 147.968c12.8 8.704 24.064 2.048 27.136-0.512 3.072-2.048 12.8-10.752 8.704-25.6l-74.24-249.856c-9.216-28.672 1.024-61.44 25.6-80.384l206.848-158.72c12.288-9.216 9.216-22.528 8.192-26.112-1.024-3.584-6.144-15.872-21.504-15.872l-260.608-6.656c-30.72-1.024-58.368-20.992-68.608-49.664l-87.04-245.76c-5.12-14.336-18.944-15.36-22.528-15.36-4.096 0-16.896 1.024-22.016 15.36L403.456 332.288c-10.752 30.208-38.912 50.688-70.656 51.2l-252.928 6.656c-16.896 0.512-22.528 13.312-23.552 17.408-1.536 4.096-4.608 17.92 8.704 28.16l202.24 154.624c24.576 18.432 35.328 50.176 26.624 80.384l-74.24 250.368c-4.608 14.848 5.632 23.04 8.704 25.6 3.072 2.56 14.336 9.216 27.136 0.512l214.528-147.968c12.8-8.704 27.648-13.312 42.496-13.312z" fill="#8a8a8a" p-id="3054"></path></svg>