<?xml version="1.0" standalone="no"?><!DOCTYPE svg PUBLIC "-//W3C//DTD SVG 1.1//EN" "http://www.w3.org/Graphics/SVG/1.1/DTD/svg11.dtd"><svg t="1589633870414" class="icon" viewBox="0 0 1024 1024" version="1.1" xmlns="http://www.w3.org/2000/svg" p-id="3909" width="32" height="32" xmlns:xlink="http://www.w3.org/1999/xlink"><defs><style type="text/css"></style></defs><path d="M418.437659 1023.999709a27.424238 27.424238 0 0 1-19.381086-46.708418l190.419175-193.810866a27.714954 27.714954 0 0 1 19.381087-8.236962h290.716298a69.481195 69.481195 0 0 0 69.481196-69.481195v-581.432598a69.481195 69.481195 0 0 0-69.481196-69.38429h-775.243463a69.481195 69.481195 0 0 0-69.38429 69.38429v581.432598A69.481195 69.481195 0 0 0 124.32967 775.243463h226.855619a27.521143 27.521143 0 0 1 0 54.945381H124.32967A124.523481 124.523481 0 0 1 0 705.762268v-581.432598A124.523481 124.523481 0 0 1 124.32967 0h775.243463a124.523481 124.523481 0 0 1 124.426576 124.32967v581.432598a124.523481 124.523481 0 0 1-124.426576 124.426576H620.19477l-182.085308 185.573903a27.327332 27.327332 0 0 1-19.671803 8.236962z" p-id="3910" fill="#8a8a8a"></path><path d="M802.667701 326.280593h-581.432598a27.521143 27.521143 0 0 1 0-54.945381h581.432598a27.521143 27.521143 0 1 1 0 54.945381zM511.951402 539.472545h-290.716299a27.521143 27.521143 0 0 1 0-54.945381h290.716299a27.521143 27.521143 0 1 1 0 54.945381z" p-id="3911" fill="#8a8a8a"></path></svg>