<?xml version="1.0" standalone="no"?><!DOCTYPE svg PUBLIC "-//W3C//DTD SVG 1.1//EN" "http://www.w3.org/Graphics/SVG/1.1/DTD/svg11.dtd"><svg t="1589633965691" class="icon" viewBox="0 0 1024 1024" version="1.1" xmlns="http://www.w3.org/2000/svg" p-id="6880" xmlns:xlink="http://www.w3.org/1999/xlink" width="32" height="32"><defs><style type="text/css"></style></defs><path d="M868.864 466.944c-8.704 0-15.36 6.656-15.36 15.36v378.88c0 19.968-15.872 35.84-35.84 35.84h-655.36c-19.968 0-35.84-15.872-35.84-35.84V206.336c0-19.968 15.872-35.84 35.84-35.84h378.88c8.704 0 15.36-6.656 15.36-15.36s-6.656-15.36-15.36-15.36h-378.88c-36.864 0-66.56 29.696-66.56 66.56v654.848c0 36.864 29.696 66.56 66.56 66.56h654.848c36.864 0 66.56-29.696 66.56-66.56v-378.88c0.512-8.192-6.656-15.36-14.848-15.36z" fill="#8a8a8a" p-id="6881"></path><path d="M933.376 198.656l-72.192-72.192c-8.704-8.704-20.48-13.312-32.768-13.312-12.288 0-24.064 4.608-32.768 13.312L394.24 528.384c-6.144 6.144-10.24 13.824-12.288 22.528L353.28 676.352c-2.048 8.704 0.512 17.408 6.656 23.552 5.12 5.12 11.264 7.68 17.92 7.68 2.048 0 3.584 0 5.632-0.512l125.44-28.16c8.704-2.048 16.384-6.144 22.528-12.288l401.92-402.432c17.92-18.432 17.92-47.616 0-65.536z m-21.504 43.52l-401.92 402.432c-2.048 2.048-4.608 3.584-7.68 4.096l-117.248 26.624 26.624-117.248c0.512-3.072 2.048-5.632 4.096-7.68l401.92-402.432c3.072-3.072 6.656-4.608 10.752-4.608s8.192 1.536 10.752 4.608L911.872 220.16c6.144 6.144 6.144 15.872 0 22.016z" fill="#8a8a8a" p-id="6882"></path></svg>